<?xml version="1.0" encoding="UTF-8"?>
<svg xmlns="http://www.w3.org/2000/svg" xmlns:xlink="http://www.w3.org/1999/xlink" width="16px" height="16px" viewBox="0 0 16 16" version="1.1">
<g id="surface1">
<path style="fill:none;stroke-width:1;stroke-linecap:butt;stroke-linejoin:round;stroke:rgb(95.686275%,88.235295%,6.27451%);stroke-opacity:1;stroke-miterlimit:2;" d="M 0 0 L 1280 0 L 1280 800 L 0 800 Z M 0 0 " transform="matrix(0.25,0,0,0.25,-304,-48)"/>
<path style="fill-rule:nonzero;fill:rgb(95.686275%,88.235295%,6.27451%);fill-opacity:1;stroke-width:1;stroke-linecap:butt;stroke-linejoin:round;stroke:rgb(95.686275%,88.235295%,6.27451%);stroke-opacity:1;stroke-miterlimit:2;" d="M 49.999882 46.507092 C 42.796697 46.507092 37.007532 40.701292 37.007532 33.498107 C 37.007532 26.294922 42.796697 20.505757 49.999882 20.505757 C 57.203067 20.505757 62.992232 26.294922 62.992232 33.498107 C 62.992232 40.701292 57.203067 46.507092 49.999882 46.507092 Z M 49.999882 24.498284 C 44.992587 24.498284 41.000059 28.507447 41.000059 33.498107 C 41.000059 38.505402 44.992587 42.497929 49.999882 42.497929 C 55.007177 42.497929 58.999704 38.505402 58.999704 33.498107 C 58.999704 28.507447 55.007177 24.498284 49.999882 24.498284 Z M 49.999882 24.498284 " transform="matrix(0.234814,0,0,0.234814,-3.834405,-2.818938)"/>
<path style="fill-rule:nonzero;fill:rgb(95.686275%,88.235295%,6.27451%);fill-opacity:1;stroke-width:1;stroke-linecap:butt;stroke-linejoin:round;stroke:rgb(95.686275%,88.235295%,6.27451%);stroke-opacity:1;stroke-miterlimit:2;" d="M 34.034162 58.494707 L 34.034162 66.993952 L 30.404591 66.993952 L 30.404591 58.494707 C 30.404591 51.311181 39.221424 45.776086 50.397477 45.776086 C 61.588654 45.776086 70.405487 51.311181 70.405487 58.494707 L 70.405487 66.993952 L 66.760793 66.993952 L 66.760793 58.494707 C 66.760793 53.594786 59.305049 49.405656 50.397477 49.405656 C 41.489906 49.405656 34.034162 53.594786 34.034162 58.494707 Z M 34.034162 58.494707 " transform="matrix(0.258295,0,0,0.258295,-5.017416,-3.300297)"/>
</g>
</svg>
